<svg xmlns="http://www.w3.org/2000/svg" width="1024" height="1024" viewBox="0 0 1024 1024">
  <!-- Silver rim. Full-bleed 1024 with r=290 corners (~28%), parallel 40px
       inner offset. Both edges use Rosenfeld's continuous-curvature bezier. -->
  <path fill-rule="evenodd" fill="#b8b4ae" d="M 443.313,0.000 L 580.687,0.000 C 708.337,0.000 772.162,0.000 840.867,21.724 C 915.881,49.027 974.973,108.119 1002.276,183.133 C 1024.000,251.838 1024.000,315.663 1024.000,443.313 L 1024.000,580.687 C 1024.000,708.337 1024.000,772.162 1002.276,840.867 C 974.973,915.881 915.881,974.973 840.867,1002.276 C 772.162,1024.000 708.337,1024.000 580.687,1024.000 L 443.313,1024.000 C 315.663,1024.000 251.838,1024.000 183.133,1002.276 C 108.119,974.973 49.027,915.881 21.724,840.867 C 0.000,772.162 0.000,708.337 0.000,580.687 L 0.000,443.313 C 0.000,315.663 0.000,251.838 21.724,183.133 C 49.027,108.119 108.119,49.027 183.133,21.724 C 251.838,0.000 315.663,0.000 443.313,0.000 Z M 422.166,40.000 L 601.834,40.000 C 711.877,40.000 766.898,40.000 826.127,58.728 C 890.794,82.265 941.735,133.206 965.272,197.873 C 984.000,257.102 984.000,312.123 984.000,422.166 L 984.000,601.834 C 984.000,711.877 984.000,766.898 965.272,826.127 C 941.735,890.794 890.794,941.735 826.127,965.272 C 766.898,984.000 711.877,984.000 601.834,984.000 L 422.166,984.000 C 312.123,984.000 257.102,984.000 197.873,965.272 C 133.206,941.735 82.265,890.794 58.728,826.127 C 40.000,766.898 40.000,711.877 40.000,601.834 L 40.000,422.166 C 40.000,312.123 40.000,257.102 58.728,197.873 C 82.265,133.206 133.206,82.265 197.873,58.728 C 257.102,40.000 312.123,40.000 422.166,40.000 Z"/>
</svg>
