<svg xmlns="http://www.w3.org/2000/svg" width="1024" height="1024" viewBox="0 0 1024 1024">
  <defs>
    <pattern id="scan" x="0" y="0" width="4" height="4" patternUnits="userSpaceOnUse">
      <rect x="0" y="0" width="2" height="4" fill="black" fill-opacity="0.18"/>
    </pattern>
    <clipPath id="screenArea">
      <path d="M 990.00,512.00 L 989.94,620.49 L 989.77,655.14 L 989.48,680.30 L 989.08,700.78 L 988.56,718.33 L 987.92,733.84 L 987.17,747.82 L 986.30,760.61 L 985.32,772.43 L 984.22,783.43 L 983.00,793.74 L 981.66,803.45 L 980.20,812.62 L 978.62,821.33 L 976.92,829.61 L 975.10,837.51 L 973.15,845.05 L 971.09,852.27 L 968.89,859.19 L 966.57,865.82 L 964.12,872.19 L 961.54,878.31 L 958.83,884.19 L 955.98,889.85 L 953.00,895.30 L 949.88,900.54 L 946.63,905.59 L 943.22,910.45 L 939.68,915.12 L 935.98,919.63 L 932.13,923.96 L 928.12,928.12 L 923.96,932.13 L 919.63,935.98 L 915.12,939.68 L 910.45,943.22 L 905.59,946.63 L 900.54,949.88 L 895.30,953.00 L 889.85,955.98 L 884.19,958.83 L 878.31,961.54 L 872.19,964.12 L 865.82,966.57 L 859.19,968.89 L 852.27,971.09 L 845.05,973.15 L 837.51,975.10 L 829.61,976.92 L 821.33,978.62 L 812.62,980.20 L 803.45,981.66 L 793.74,983.00 L 783.43,984.22 L 772.43,985.32 L 760.61,986.30 L 747.82,987.17 L 733.84,987.92 L 718.33,988.56 L 700.78,989.08 L 680.30,989.48 L 655.14,989.77 L 620.49,989.94 L 512.00,990.00 L 403.51,989.94 L 368.86,989.77 L 343.70,989.48 L 323.22,989.08 L 305.67,988.56 L 290.16,987.92 L 276.18,987.17 L 263.39,986.30 L 251.57,985.32 L 240.57,984.22 L 230.26,983.00 L 220.55,981.66 L 211.38,980.20 L 202.67,978.62 L 194.39,976.92 L 186.49,975.10 L 178.95,973.15 L 171.73,971.09 L 164.81,968.89 L 158.18,966.57 L 151.81,964.12 L 145.69,961.54 L 139.81,958.83 L 134.15,955.98 L 128.70,953.00 L 123.46,949.88 L 118.41,946.63 L 113.55,943.22 L 108.88,939.68 L 104.37,935.98 L 100.04,932.13 L 95.88,928.12 L 91.87,923.96 L 88.02,919.63 L 84.32,915.12 L 80.78,910.45 L 77.37,905.59 L 74.12,900.54 L 71.00,895.30 L 68.02,889.85 L 65.17,884.19 L 62.46,878.31 L 59.88,872.19 L 57.43,865.82 L 55.11,859.19 L 52.91,852.27 L 50.85,845.05 L 48.90,837.51 L 47.08,829.61 L 45.38,821.33 L 43.80,812.62 L 42.34,803.45 L 41.00,793.74 L 39.78,783.43 L 38.68,772.43 L 37.70,760.61 L 36.83,747.82 L 36.08,733.84 L 35.44,718.33 L 34.92,700.78 L 34.52,680.30 L 34.23,655.14 L 34.06,620.49 L 34.00,512.00 L 34.06,403.51 L 34.23,368.86 L 34.52,343.70 L 34.92,323.22 L 35.44,305.67 L 36.08,290.16 L 36.83,276.18 L 37.70,263.39 L 38.68,251.57 L 39.78,240.57 L 41.00,230.26 L 42.34,220.55 L 43.80,211.38 L 45.38,202.67 L 47.08,194.39 L 48.90,186.49 L 50.85,178.95 L 52.91,171.73 L 55.11,164.81 L 57.43,158.18 L 59.88,151.81 L 62.46,145.69 L 65.17,139.81 L 68.02,134.15 L 71.00,128.70 L 74.12,123.46 L 77.37,118.41 L 80.78,113.55 L 84.32,108.88 L 88.02,104.37 L 91.87,100.04 L 95.88,95.88 L 100.04,91.87 L 104.37,88.02 L 108.88,84.32 L 113.55,80.78 L 118.41,77.37 L 123.46,74.12 L 128.70,71.00 L 134.15,68.02 L 139.81,65.17 L 145.69,62.46 L 151.81,59.88 L 158.18,57.43 L 164.81,55.11 L 171.73,52.91 L 178.95,50.85 L 186.49,48.90 L 194.39,47.08 L 202.67,45.38 L 211.38,43.80 L 220.55,42.34 L 230.26,41.00 L 240.57,39.78 L 251.57,38.68 L 263.39,37.70 L 276.18,36.83 L 290.16,36.08 L 305.67,35.44 L 323.22,34.92 L 343.70,34.52 L 368.86,34.23 L 403.51,34.06 L 512.00,34.00 L 620.49,34.06 L 655.14,34.23 L 680.30,34.52 L 700.78,34.92 L 718.33,35.44 L 733.84,36.08 L 747.82,36.83 L 760.61,37.70 L 772.43,38.68 L 783.43,39.78 L 793.74,41.00 L 803.45,42.34 L 812.62,43.80 L 821.33,45.38 L 829.61,47.08 L 837.51,48.90 L 845.05,50.85 L 852.27,52.91 L 859.19,55.11 L 865.82,57.43 L 872.19,59.88 L 878.31,62.46 L 884.19,65.17 L 889.85,68.02 L 895.30,71.00 L 900.54,74.12 L 905.59,77.37 L 910.45,80.78 L 915.12,84.32 L 919.63,88.02 L 923.96,91.87 L 928.12,95.88 L 932.13,100.04 L 935.98,104.37 L 939.68,108.88 L 943.22,113.55 L 946.63,118.41 L 949.88,123.46 L 953.00,128.70 L 955.98,134.15 L 958.83,139.81 L 961.54,145.69 L 964.12,151.81 L 966.57,158.18 L 968.89,164.81 L 971.09,171.73 L 973.15,178.95 L 975.10,186.49 L 976.92,194.39 L 978.62,202.67 L 980.20,211.38 L 981.66,220.55 L 983.00,230.26 L 984.22,240.57 L 985.32,251.57 L 986.30,263.39 L 987.17,276.18 L 987.92,290.16 L 988.56,305.67 L 989.08,323.22 L 989.48,343.70 L 989.77,368.86 L 989.94,403.51 Z"/>
    </clipPath>
  </defs>
  <g clip-path="url(#screenArea)">
    <rect width="1024" height="1024" fill="url(#scan)" opacity="0.5"/>
  </g>
</svg>
